<?xml version="1.0" standalone="no"?>
<!DOCTYPE svg PUBLIC "-//W3C//DTD SVG 20010904//EN"
 "http://www.w3.org/TR/2001/REC-SVG-20010904/DTD/svg10.dtd">
<svg version="1.0" xmlns="http://www.w3.org/2000/svg"
 width="260.000000pt" height="260.000000pt" viewBox="0 0 260.000000 260.000000"
 preserveAspectRatio="xMidYMid meet">
<metadata>
Created by potrace 1.14, written by Peter Selinger 2001-2017
</metadata>
<g transform="translate(0.000000,260.000000) scale(0.100000,-0.100000)"
fill="#000000" stroke="none">
<path d="M0 1300 l0 -1300 1300 0 1300 0 0 1300 0 1300 -1300 0 -1300 0 0
-1300z m890 220 l0 -80 90 0 90 0 0 80 0 80 30 0 29 0 3 -81 3 -80 135 -2
c131 -2 135 -3 138 -24 3 -21 -1 -22 -65 -25 l-68 -3 -3 -172 -2 -173 -25 0
-25 0 -2 173 -3 172 -42 3 -43 3 0 -90 0 -91 -30 0 -30 0 0 90 0 90 -90 0 -90
0 0 -87 c0 -49 -5 -105 -10 -125 -13 -46 -52 -78 -96 -78 -30 0 -34 3 -34 25
0 20 5 25 24 25 50 0 56 26 56 247 l0 203 30 0 30 0 0 -80z m880 -305 c0 -36
8 -43 27 -24 18 18 58 2 71 -26 18 -39 16 -125 -3 -125 -11 0 -15 11 -15 43 0
66 -9 87 -36 87 -30 0 -44 -27 -44 -84 0 -25 -4 -46 -10 -46 -6 0 -10 42 -10
105 0 63 4 105 10 105 6 0 10 -16 10 -35z m-230 -35 c11 -11 20 -31 20 -45 0
-23 -3 -25 -50 -25 -36 0 -50 -4 -50 -14 0 -25 28 -39 66 -31 28 5 35 3 32 -7
-3 -7 -23 -14 -47 -16 -58 -4 -81 17 -81 74 0 34 5 47 26 63 33 26 58 27 84 1z
m160 5 c11 -13 7 -15 -23 -15 -26 0 -39 -6 -47 -19 -26 -49 3 -97 52 -87 21 4
28 2 26 -7 -5 -14 -41 -21 -73 -13 -29 7 -49 55 -40 95 11 52 76 80 105 46z
m-486 -196 c-3 -5 -14 -5 -25 1 -26 14 -24 18 6 12 14 -2 22 -8 19 -13z m-114
7 c0 -3 -4 -8 -10 -11 -5 -3 -10 -1 -10 4 0 6 5 11 10 11 6 0 10 -2 10 -4z
m288 -21 c-3 -3 -9 2 -12 12 -6 14 -5 15 5 6 7 -7 10 -15 7 -18z"/>
<path d="M1467 1164 c-18 -19 -5 -34 29 -34 28 0 35 3 32 18 -3 17 -48 29 -61
16z"/>
</g>
</svg>
